<svg xmlns="http://www.w3.org/2000/svg" width="25" height="25" viewBox="0 0 25 25" fill="none">
<path d="M2.975 8.48951C2.9743 9.20152 3.10565 9.90721 3.3679 10.6058C3.63105 11.3069 4.09006 12.0837 4.73901 12.9357C5.38836 13.7882 6.27126 14.7692 7.38587 15.8782L7.38594 15.8783C8.50044 16.9858 9.90835 18.3165 11.6093 19.8701L11.6098 19.8707L12.3994 20.5842L12.5001 20.6751L12.6006 20.5841L13.3892 19.8706L13.3893 19.8705C15.1042 18.3168 16.5159 16.9858 17.6238 15.8779L17.6238 15.8779C18.7321 14.7689 19.6117 13.7884 20.261 12.9368C20.91 12.0854 21.369 11.3078 21.6322 10.6047L21.6322 10.6046C21.8937 9.90542 22.025 9.20016 22.025 8.48958C22.025 7.12662 21.5605 5.97541 20.6311 5.04602C19.7017 4.11663 18.5505 3.65208 17.1875 3.65208C16.2439 3.65208 15.3584 3.89372 14.5337 4.3757C13.7642 4.82539 13.0867 5.46414 12.5 6.2878C11.9133 5.46414 11.2358 4.82539 10.4663 4.3757C9.64159 3.89372 8.75614 3.65208 7.8125 3.65208C6.44954 3.65208 5.29833 4.11663 4.36894 5.04602C3.43956 5.97539 2.97502 7.12658 2.975 8.48951ZM2.975 8.48951C2.975 8.48953 2.975 8.48956 2.975 8.48958H3.125L2.975 8.48943C2.975 8.48946 2.975 8.48948 2.975 8.48951ZM13.0968 7.84271H13.0104H11.9917H11.9058L11.8624 7.76872C11.3027 6.81658 10.6859 6.11955 10.0152 5.66821L13.0968 7.84271ZM13.0968 7.84271L13.1401 7.76802M13.0968 7.84271L13.1401 7.76802M13.1401 7.76802C13.6848 6.82985 14.2977 6.13621 14.9756 5.67848C15.6528 5.22124 16.3889 4.99375 17.1875 4.99375C18.1921 4.99375 19.0211 5.32701 19.6856 5.99148C20.3501 6.65596 20.6833 7.48502 20.6833 8.48958C20.6833 9.06312 20.5662 9.6464 20.3294 10.2403C20.0938 10.83 19.6692 11.5168 19.049 12.3018C18.429 13.0864 17.5827 14.0142 16.5087 15.0855C15.4564 16.135 14.1205 17.393 12.5004 18.8598M13.1401 7.76802L12.5004 18.8598M12.5004 18.8598C10.88 17.3809 9.54371 16.1193 8.49107 15.0748C7.41704 14.0091 6.57088 13.0849 5.95095 12.3017C5.3307 11.5181 4.9062 10.8313 4.67059 10.2403C4.43386 9.64643 4.31668 9.06318 4.31667 8.48968C4.31734 7.48556 4.65408 6.65662 5.32533 5.99201C5.99737 5.32663 6.82347 4.99375 7.81354 4.99375C8.61259 4.99375 9.34529 5.21803 10.0152 5.66819L12.5004 18.8598Z" fill="#383838" stroke="#383838" stroke-width="0.3"/>
</svg>