<svg xmlns="http://www.w3.org/2000/svg" width="25" height="25" viewBox="0 0 25 25" fill="none">
<path d="M14.5833 11.4583C14.5833 11.1821 14.693 10.9171 14.8883 10.7218C15.0837 10.5264 15.3487 10.4167 15.6249 10.4167C15.9012 10.4167 16.1661 10.5264 16.3615 10.7218C16.5568 10.9171 16.6666 11.1821 16.6666 11.4583V13.5417C16.6666 13.8179 16.5568 14.0829 16.3615 14.2782C16.1661 14.4736 15.9012 14.5833 15.6249 14.5833C15.3487 14.5833 15.0837 14.4736 14.8883 14.2782C14.693 14.0829 14.5833 13.8179 14.5833 13.5417V11.4583Z" stroke="#383838" stroke-width="1.375"/>
<path d="M14.5979 17.7083L15.3791 17.7104V17.7083H14.5979ZM14.5979 7.29167H15.3791V7.28958L14.5979 7.29167ZM15.3729 19.7969L15.3791 17.7104L13.8166 17.7062L13.8104 19.7927L15.3729 19.7969ZM15.6416 17.4479C15.7885 17.4479 15.9052 17.5667 15.9052 17.7083H17.4677C17.4677 16.7 16.6479 15.8854 15.6416 15.8854V17.4479ZM15.6416 15.8854C14.6354 15.8854 13.8166 16.7 13.8166 17.7083H15.3791C15.3791 17.5667 15.4948 17.4479 15.6416 17.4479V15.8854ZM10.4114 4.94792H14.0677V3.38542H10.4114V4.94792ZM13.55 20.0521H10.4114V21.6146H13.55V20.0521ZM10.4114 20.0521C8.42081 20.0521 7.00518 20.05 5.93227 19.9062C4.88018 19.7656 4.27498 19.501 3.83227 19.0594L2.72914 20.1667C3.51039 20.9458 4.50206 21.2917 5.72498 21.4563C6.92706 21.6177 8.46456 21.6156 10.4125 21.6156L10.4114 20.0521ZM10.4114 3.38542C8.46352 3.38542 6.92602 3.38333 5.72393 3.54479C4.50102 3.70937 3.51039 4.05521 2.72914 4.83437L3.83331 5.94062C4.27498 5.49896 4.88123 5.23437 5.93227 5.09375C7.00518 4.95 8.42081 4.94792 10.4114 4.94792V3.38542ZM2.69477 11.3635C3.09685 11.5875 3.36456 12.0135 3.36456 12.5H4.92706C4.92709 11.9901 4.79097 11.4895 4.53276 11.0498C4.27455 10.6101 3.90363 10.2473 3.45831 9.99896L2.69477 11.3635ZM2.87498 9.39583C2.95623 7.4625 3.21977 6.55104 3.83331 5.94062L2.72914 4.83437C1.65623 5.90521 1.39581 7.375 1.31248 9.33125L2.87498 9.39583ZM3.36456 12.5C3.36456 12.9865 3.09685 13.4125 2.69477 13.6375L3.45727 15.0021C3.90293 14.7538 4.27417 14.3909 4.53257 13.951C4.79098 13.5111 4.92717 13.0102 4.92706 12.5H3.36456ZM1.31352 15.6687C1.39685 17.6229 1.65727 19.0958 2.72914 20.1656L3.83331 19.0594C3.21977 18.449 2.95623 17.5365 2.87498 15.6031L1.31352 15.6687ZM21.6354 12.5C21.6354 12.0135 21.9031 11.5875 22.3052 11.3635L21.5427 9.99896C21.0972 10.2472 20.726 10.6099 20.4676 11.0496C20.2092 11.4893 20.073 11.99 20.0729 12.5H21.6354ZM23.6864 9.33125C23.6031 7.37708 23.3427 5.90417 22.2708 4.83437L21.1666 5.94062C21.7791 6.55104 22.0437 7.46354 22.125 9.39687L23.6864 9.33125ZM22.3052 13.6375C22.1022 13.5249 21.9331 13.36 21.8153 13.16C21.6975 12.96 21.6354 12.7321 21.6354 12.5H20.0729C20.0729 13.5771 20.6677 14.5125 21.5427 15.001L22.3052 13.6375ZM22.125 15.6031C22.0437 17.5365 21.7802 18.449 21.1666 19.0594L22.2708 20.1656C23.3437 19.0958 23.6041 17.624 23.6864 15.6687L22.125 15.6031ZM21.5427 15.001C21.8385 15.1667 22.0323 15.275 22.1625 15.3573C22.2271 15.3979 22.2562 15.4198 22.2646 15.426C22.2791 15.4385 22.226 15.401 22.176 15.3115L23.5406 14.5479C23.4681 14.4232 23.3731 14.313 23.2604 14.2229C23.1763 14.1548 23.0879 14.0922 22.9958 14.0354C22.8219 13.925 22.5833 13.7927 22.3052 13.6365L21.5427 15.001ZM23.6864 15.6687C23.6937 15.4906 23.7021 15.3062 23.6958 15.1521C23.6923 14.9412 23.6387 14.7341 23.5396 14.5479L22.176 15.3104C22.1239 15.2167 22.1312 15.1521 22.1344 15.2208C22.1354 15.25 22.1364 15.2937 22.1344 15.3604L22.125 15.6031L23.6864 15.6687ZM22.3052 11.3635C22.5833 11.2073 22.8219 11.075 22.9958 10.9646C23.0877 10.9075 23.1761 10.8449 23.2604 10.7771C23.3727 10.6869 23.4674 10.5767 23.5396 10.4521L22.176 9.68958C22.226 9.59896 22.2791 9.56146 22.2635 9.57396C22.2311 9.59874 22.1974 9.6217 22.1625 9.64271C22.0323 9.72604 21.8396 9.83333 21.5427 9.99896L22.3052 11.3635ZM22.125 9.39687L22.1344 9.63854C22.1364 9.70521 22.1354 9.74896 22.1344 9.77812C22.1312 9.84687 22.1239 9.78229 22.176 9.68854L23.5406 10.451C23.639 10.2646 23.6922 10.0577 23.6958 9.84687C23.6994 9.67458 23.6959 9.50222 23.6854 9.33021L22.125 9.39687ZM2.69477 13.6365C2.41664 13.7927 2.1781 13.924 2.00414 14.0344C1.91205 14.0912 1.82367 14.1538 1.73956 14.2219C1.62724 14.312 1.53259 14.4233 1.46039 14.5479L2.82393 15.3094C2.77393 15.4 2.72081 15.4375 2.73539 15.425C2.74477 15.4177 2.77289 15.3969 2.83748 15.3562C2.96768 15.2729 3.16039 15.1656 3.45727 15L2.69477 13.6365ZM2.87498 15.6021C2.87123 15.5212 2.8681 15.4403 2.8656 15.3594C2.86406 15.3129 2.86406 15.2663 2.8656 15.2198C2.86873 15.151 2.87602 15.2156 2.82393 15.3094L1.45935 14.5469C1.36057 14.7332 1.30738 14.9402 1.30414 15.151C1.29789 15.3052 1.30623 15.4896 1.31456 15.6677L2.87498 15.6021ZM3.45727 9.99792C3.16143 9.83229 2.96768 9.72396 2.83748 9.64167C2.80221 9.62065 2.76813 9.5977 2.73539 9.57292C2.72081 9.56042 2.77393 9.59792 2.82393 9.6875L1.45935 10.451C1.54685 10.6052 1.66248 10.7115 1.73956 10.776C1.82289 10.8448 1.9156 10.9073 2.00414 10.9635C2.1781 11.074 2.41664 11.2062 2.69477 11.3625L3.45727 9.99792ZM1.31248 9.33125C1.30518 9.50937 1.29685 9.69375 1.3031 9.84792C1.31039 10.0042 1.33435 10.2302 1.45935 10.4521L2.82393 9.68958C2.87602 9.78333 2.86768 9.84792 2.86456 9.77917C2.86302 9.73265 2.86302 9.6861 2.86456 9.63958L2.87393 9.39687L1.31248 9.33125ZM15.3781 7.28958L15.3698 4.68333L13.8083 4.68854L13.8156 7.29375L15.3781 7.28958ZM15.6406 7.55208C15.6063 7.55222 15.5722 7.54559 15.5405 7.53258C15.5087 7.51957 15.4798 7.50042 15.4554 7.47624C15.431 7.45206 15.4117 7.42331 15.3984 7.39164C15.3851 7.35997 15.3782 7.326 15.3781 7.29167H13.8156C13.8156 8.3 14.6344 9.11458 15.6406 9.11458V7.55208ZM15.9062 7.29167C15.9062 7.43333 15.7896 7.55208 15.6427 7.55208V9.11458C16.6489 9.11458 17.4687 8.3 17.4687 7.29167H15.9062ZM15.9062 4.70417V7.29167H17.4687V4.70417H15.9062ZM17.1979 4.96771C19.4771 5.02604 20.4989 5.27187 21.1687 5.94062L22.2729 4.83437C21.1135 3.67812 19.4739 3.46354 17.2375 3.40521L17.1979 4.96771ZM17.4687 4.70417C17.4687 4.85 17.3479 4.97083 17.1979 4.96771L17.2375 3.40521C17.0642 3.4009 16.8918 3.43131 16.7305 3.49466C16.5691 3.55801 16.4221 3.653 16.298 3.77406C16.174 3.89511 16.0754 4.03976 16.0081 4.1995C15.9408 4.35924 15.9062 4.53083 15.9062 4.70417H17.4687ZM14.0677 4.94792C13.9988 4.94764 13.9339 4.92008 13.8853 4.87127C13.8366 4.82247 13.8094 4.75639 13.8094 4.6875L15.3719 4.68333C15.3707 4.33872 15.2331 4.0086 14.989 3.76531C14.7449 3.52203 14.4144 3.38541 14.0698 3.38542L14.0677 4.94792ZM17.776 21.5771C19.7291 21.4938 21.2021 21.2333 22.2719 20.1656L21.1666 19.0594C20.5562 19.6698 19.6427 19.9344 17.7114 20.0156L17.776 21.5771ZM15.9062 17.7083V19.7677H17.4687V17.7083H15.9062ZM13.8114 19.7917C13.8114 19.9177 13.8114 20.0146 13.8083 20.0969C13.8062 20.1802 13.8021 20.2281 13.7979 20.2583C13.7937 20.2875 13.7927 20.2781 13.8041 20.2479C13.8236 20.2031 13.8515 20.1624 13.8864 20.1281L14.9896 21.2344C15.1903 21.0268 15.3157 20.758 15.3458 20.4708C15.3739 20.2656 15.3719 20.0198 15.3729 19.7969L13.8114 19.7917ZM13.55 21.6146C13.7729 21.6146 14.0198 21.6167 14.225 21.5885C14.4531 21.5573 14.7437 21.4792 14.9896 21.2344L13.8854 20.1281C13.9204 20.0934 13.9618 20.0658 14.0073 20.0469C14.0364 20.0344 14.0469 20.0365 14.0177 20.0396C13.9637 20.0458 13.9095 20.0493 13.8552 20.05C13.7719 20.0521 13.675 20.0521 13.55 20.0521V21.6146ZM17.7114 20.0156C17.5864 20.0208 17.4896 20.025 17.4073 20.026C17.325 20.0271 17.2771 20.026 17.2489 20.0229C17.2208 20.0198 17.2333 20.0177 17.2646 20.0302C17.3031 20.0448 17.3479 20.0719 17.3885 20.1094L16.3073 21.2375C16.5614 21.4813 16.8583 21.5542 17.0958 21.5771C17.3062 21.5979 17.5531 21.5865 17.776 21.5771L17.7114 20.0156ZM15.9062 19.7677C15.9062 19.9948 15.9041 20.2469 15.9333 20.4583C15.9656 20.6938 16.05 20.9906 16.3073 21.2375L17.3885 20.1094C17.4302 20.149 17.4573 20.1938 17.4739 20.2313C17.4864 20.2625 17.4844 20.2729 17.4812 20.2438C17.4749 20.1888 17.4714 20.1335 17.4708 20.0781C17.4687 19.9948 17.4687 19.8958 17.4687 19.7677H15.9062Z" fill="#383838"/>
</svg>